<svg xmlns:xlink="http://www.w3.org/1999/xlink" width="28.592ex" height="4.843ex" style="font-size: 15px; vertical-align: -0.838ex;" viewBox="0 -1724.2 12310.3 2085" role="img" focusable="false" xmlns="http://www.w3.org/2000/svg">
<defs>
<path stroke-width="1" id="E1-MJMATHI-57" d="M436 683Q450 683 486 682T553 680Q604 680 638 681T677 682Q695 682 695 674Q695 670 692 659Q687 641 683 639T661 637Q636 636 621 632T600 624T597 615Q597 603 613 377T629 138L631 141Q633 144 637 151T649 170T666 200T690 241T720 295T759 362Q863 546 877 572T892 604Q892 619 873 628T831 637Q817 637 817 647Q817 650 819 660Q823 676 825 679T839 682Q842 682 856 682T895 682T949 681Q1015 681 1034 683Q1048 683 1048 672Q1048 666 1045 655T1038 640T1028 637Q1006 637 988 631T958 617T939 600T927 584L923 578L754 282Q586 -14 585 -15Q579 -22 561 -22Q546 -22 542 -17Q539 -14 523 229T506 480L494 462Q472 425 366 239Q222 -13 220 -15T215 -19Q210 -22 197 -22Q178 -22 176 -15Q176 -12 154 304T131 622Q129 631 121 633T82 637H58Q51 644 51 648Q52 671 64 683H76Q118 680 176 680Q301 680 313 683H323Q329 677 329 674T327 656Q322 641 318 637H297Q236 634 232 620Q262 160 266 136L501 550L499 587Q496 629 489 632Q483 636 447 637Q428 637 422 639T416 648Q416 650 418 660Q419 664 420 669T421 676T424 680T428 682T436 683Z"></path>
<path stroke-width="1" id="E1-MJMAIN-28" d="M94 250Q94 319 104 381T127 488T164 576T202 643T244 695T277 729T302 750H315H319Q333 750 333 741Q333 738 316 720T275 667T226 581T184 443T167 250T184 58T225 -81T274 -167T316 -220T333 -241Q333 -250 318 -250H315H302L274 -226Q180 -141 137 -14T94 250Z"></path>
<path stroke-width="1" id="E1-MJMATHI-78" d="M52 289Q59 331 106 386T222 442Q257 442 286 424T329 379Q371 442 430 442Q467 442 494 420T522 361Q522 332 508 314T481 292T458 288Q439 288 427 299T415 328Q415 374 465 391Q454 404 425 404Q412 404 406 402Q368 386 350 336Q290 115 290 78Q290 50 306 38T341 26Q378 26 414 59T463 140Q466 150 469 151T485 153H489Q504 153 504 145Q504 144 502 134Q486 77 440 33T333 -11Q263 -11 227 52Q186 -10 133 -10H127Q78 -10 57 16T35 71Q35 103 54 123T99 143Q142 143 142 101Q142 81 130 66T107 46T94 41L91 40Q91 39 97 36T113 29T132 26Q168 26 194 71Q203 87 217 139T245 247T261 313Q266 340 266 352Q266 380 251 392T217 404Q177 404 142 372T93 290Q91 281 88 280T72 278H58Q52 284 52 289Z"></path>
<path stroke-width="1" id="E1-MJMAIN-29" d="M60 749L64 750Q69 750 74 750H86L114 726Q208 641 251 514T294 250Q294 182 284 119T261 12T224 -76T186 -143T145 -194T113 -227T90 -246Q87 -249 86 -250H74Q66 -250 63 -250T58 -247T55 -238Q56 -237 66 -225Q221 -64 221 250T66 725Q56 737 55 738Q55 746 60 749Z"></path>
<path stroke-width="1" id="E1-MJMAIN-3D" d="M56 347Q56 360 70 367H707Q722 359 722 347Q722 336 708 328L390 327H72Q56 332 56 347ZM56 153Q56 168 72 173H708Q722 163 722 153Q722 140 707 133H70Q56 140 56 153Z"></path>
<path stroke-width="1" id="E1-MJMATHI-65" d="M39 168Q39 225 58 272T107 350T174 402T244 433T307 442H310Q355 442 388 420T421 355Q421 265 310 237Q261 224 176 223Q139 223 138 221Q138 219 132 186T125 128Q125 81 146 54T209 26T302 45T394 111Q403 121 406 121Q410 121 419 112T429 98T420 82T390 55T344 24T281 -1T205 -11Q126 -11 83 42T39 168ZM373 353Q367 405 305 405Q272 405 244 391T199 357T170 316T154 280T149 261Q149 260 169 260Q282 260 327 284T373 353Z"></path>
<path stroke-width="1" id="E1-MJMAIN-2212" d="M84 237T84 250T98 270H679Q694 262 694 250T679 230H98Q84 237 84 250Z"></path>
<path stroke-width="1" id="E1-MJMAIN-2E" d="M78 60Q78 84 95 102T138 120Q162 120 180 104T199 61Q199 36 182 18T139 0T96 17T78 60Z"></path>
</defs>
<g stroke="currentColor" fill="currentColor" stroke-width="0" transform="matrix(1 0 0 -1 0 0)">
 <use xlink:href="#E1-MJMATHI-57" x="0" y="0"></use>
 <use xlink:href="#E1-MJMAIN-28" x="1048" y="0"></use>
 <use xlink:href="#E1-MJMATHI-78" x="1438" y="0"></use>
 <use xlink:href="#E1-MJMAIN-29" x="2010" y="0"></use>
 <use xlink:href="#E1-MJMAIN-3D" x="2677" y="0"></use>
 <use xlink:href="#E1-MJMATHI-78" x="3734" y="0"></use>
 <use xlink:href="#E1-MJMAIN-28" x="4306" y="0"></use>
<g transform="translate(4696,0)">
 <use xlink:href="#E1-MJMATHI-65" x="0" y="0"></use>
<g transform="translate(466,412)">
 <use transform="scale(0.707)" xlink:href="#E1-MJMAIN-2212" x="0" y="0"></use>
 <use transform="scale(0.707)" xlink:href="#E1-MJMATHI-78" x="778" y="0"></use>
</g>
</g>
<g transform="translate(6217,0)">
 <use xlink:href="#E1-MJMAIN-29" x="0" y="0"></use>
<g transform="translate(389,412)">
 <use transform="scale(0.707)" xlink:href="#E1-MJMAIN-28" x="0" y="0"></use>
<g transform="translate(275,0)">
 <use transform="scale(0.707)" xlink:href="#E1-MJMATHI-65" x="0" y="0"></use>
<g transform="translate(329,256)">
 <use transform="scale(0.574)" xlink:href="#E1-MJMAIN-2212" x="0" y="0"></use>
 <use transform="scale(0.574)" xlink:href="#E1-MJMATHI-78" x="778" y="0"></use>
</g>
</g>
<g transform="translate(1451,0)">
 <use transform="scale(0.707)" xlink:href="#E1-MJMAIN-29" x="0" y="0"></use>
<g transform="translate(275,309)">
 <use transform="scale(0.574)" xlink:href="#E1-MJMAIN-28" x="0" y="0"></use>
<g transform="translate(223,0)">
 <use transform="scale(0.574)" xlink:href="#E1-MJMATHI-65" x="0" y="0"></use>
<g transform="translate(267,208)">
 <use transform="scale(0.574)" xlink:href="#E1-MJMAIN-2212" x="0" y="0"></use>
 <use transform="scale(0.574)" xlink:href="#E1-MJMATHI-78" x="778" y="0"></use>
</g>
</g>
<g transform="translate(1324,0)">
 <use transform="scale(0.574)" xlink:href="#E1-MJMAIN-29" x="0" y="0"></use>
<g transform="translate(223,209)">
 <use transform="scale(0.574)" xlink:href="#E1-MJMAIN-28" x="0" y="0"></use>
<g transform="translate(223,0)">
 <use transform="scale(0.574)" xlink:href="#E1-MJMATHI-65" x="0" y="0"></use>
<g transform="translate(267,208)">
 <use transform="scale(0.574)" xlink:href="#E1-MJMAIN-2212" x="0" y="0"></use>
 <use transform="scale(0.574)" xlink:href="#E1-MJMATHI-78" x="778" y="0"></use>
</g>
</g>
<g transform="translate(1324,0)">
 <use transform="scale(0.574)" xlink:href="#E1-MJMAIN-29" x="0" y="0"></use>
<g transform="translate(223,209)">
 <use transform="scale(0.574)" xlink:href="#E1-MJMAIN-2E" x="0" y="0"></use>
<g transform="translate(159,208)">
 <use transform="scale(0.574)" xlink:href="#E1-MJMAIN-2E" x="0" y="0"></use>
 <use transform="scale(0.574)" xlink:href="#E1-MJMAIN-2E" x="278" y="362"></use>
</g>
</g>
</g>
</g>
</g>
</g>
</g>
</g>
</g>
</g>
</svg>